<?xml version="1.0" standalone="no"?>
<!DOCTYPE svg PUBLIC "-//W3C//DTD SVG 20010904//EN"
 "http://www.w3.org/TR/2001/REC-SVG-20010904/DTD/svg10.dtd">
<svg version="1.0" xmlns="http://www.w3.org/2000/svg"
 width="1773.000000pt" height="239.000000pt" viewBox="0 0 1773.000000 239.000000"
 preserveAspectRatio="xMidYMid meet">

<g transform="translate(0.000000,239.000000) scale(0.100000,-0.100000)"
fill="#000000" stroke="none">
<path d="M0 1195 l0 -1195 8865 0 8865 0 0 1195 0 1195 -8865 0 -8865 0 0
-1195z m1050 1019 c0 -3 -25 -32 -57 -63 -31 -31 -67 -78 -79 -106 -24 -50
-24 -52 -24 -450 l0 -399 47 -48 47 -48 -47 -48 -47 -48 0 -229 c0 -223 1
-232 25 -283 13 -29 50 -80 81 -113 l57 -59 -351 0 c-194 0 -352 3 -352 6 0 3
22 27 48 54 27 27 61 73 78 102 l29 53 3 229 4 229 -54 54 -53 54 53 50 52 50
0 387 0 387 -30 63 c-17 35 -55 89 -86 123 l-57 59 356 0 c197 0 357 -3 357
-6z m618 -380 c65 -21 139 -78 179 -137 17 -26 104 -230 193 -455 89 -224 166
-411 171 -416 5 -6 9 24 9 79 l0 89 -55 56 -55 56 56 48 55 48 -3 212 c-4 250
-9 269 -112 372 l-64 64 261 0 261 0 -48 -47 c-57 -57 -98 -115 -114 -162 -8
-21 -12 -109 -12 -237 l0 -203 50 -47 50 -47 -50 -57 -50 -58 0 -219 0 -220
30 -60 c17 -33 56 -86 87 -117 l56 -56 -307 2 -307 3 -227 552 -227 552 -3
-116 -3 -116 52 -46 52 -47 -52 -49 -52 -49 3 -235 c3 -224 5 -239 27 -286 13
-27 51 -76 84 -108 l59 -57 -262 0 -262 0 56 51 c37 33 67 73 88 117 l33 66 3
218 3 218 -56 59 -55 58 55 47 55 47 -3 207 c-2 202 -3 208 -29 265 -16 34
-52 82 -87 117 l-59 60 238 0 c191 0 247 -3 288 -16z m2572 -259 c40 -151 71
-278 68 -281 -10 -9 -79 24 -98 48 -11 13 -27 46 -36 73 -59 178 -174 284
-343 316 -74 14 -77 12 -111 -78 -18 -47 -20 -78 -20 -257 l0 -204 53 -46 52
-45 -53 -54 -53 -54 3 -224 c3 -218 4 -226 29 -280 15 -31 51 -81 83 -113 l56
-56 -359 0 -359 0 59 60 c35 35 71 83 87 117 26 57 27 63 30 278 l4 220 -58
52 -59 52 58 52 58 52 -3 206 c-3 191 -5 210 -27 258 -13 29 -28 56 -35 62
-20 16 -135 -7 -197 -40 -105 -56 -157 -124 -234 -307 -20 -46 -54 -76 -100
-88 -22 -5 -27 -4 -23 7 3 8 36 134 73 282 l69 267 656 0 657 0 73 -275z
m1397 75 c56 -107 102 -203 102 -213 2 -34 -30 -78 -66 -94 -39 -16 -53 -8
-53 29 0 32 -42 132 -78 187 -47 70 -109 115 -207 148 -73 24 -94 27 -235 27
-125 1 -162 -3 -192 -16 l-38 -17 0 -427 0 -427 33 27 c66 55 214 149 292 186
85 40 244 94 310 105 33 5 21 -4 -70 -52 -197 -105 -377 -245 -500 -391 l-65
-77 0 -162 0 -163 -274 0 -274 0 64 64 c102 102 107 120 112 385 l4 223 -53
54 -53 54 53 54 53 53 -4 204 -3 205 -33 66 c-21 44 -51 84 -88 117 l-56 51
609 -2 608 -3 102 -195z m904 190 c257 -19 394 -86 464 -227 50 -101 47 -319
-6 -417 -11 -21 -18 -40 -16 -43 3 -2 36 -9 74 -14 37 -5 82 -13 98 -18 28 -7
26 -8 -25 -15 -128 -17 -229 -39 -282 -63 -32 -14 -58 -28 -58 -30 0 -5 489
-673 514 -702 43 -49 169 -150 221 -177 30 -16 55 -32 55 -36 0 -11 -688 -10
-694 0 -11 18 22 58 67 80 52 25 59 44 30 90 -10 15 -102 142 -204 284 -105
145 -195 277 -205 305 -9 26 -19 50 -21 52 -5 7 -155 -111 -219 -174 l-64 -63
0 -176 0 -176 -215 0 c-118 0 -215 3 -215 6 0 3 18 26 39 50 82 93 86 109 89
377 l3 238 -41 54 -42 55 41 51 41 52 0 208 c0 166 -3 218 -16 256 -17 50 -90
163 -106 163 -5 0 -6 5 -3 10 8 13 514 13 696 0z m1439 -5 c36 -8 104 -29 151
-46 96 -34 94 -34 178 26 22 16 48 25 72 25 20 0 44 3 53 6 14 6 16 -21 16
-250 l0 -256 -69 0 -68 0 -22 58 c-47 130 -148 249 -255 302 -57 29 -78 33
-144 34 -150 2 -242 -67 -242 -181 0 -107 68 -158 328 -244 103 -34 207 -72
232 -84 25 -12 79 -28 120 -35 72 -12 180 -43 210 -61 9 -5 -26 -6 -82 -2 -54
3 -98 3 -98 0 0 -4 15 -27 34 -52 35 -46 76 -140 76 -176 0 -11 24 -45 52 -75
l53 -56 -52 -49 c-30 -29 -56 -64 -63 -86 -50 -157 -191 -274 -363 -303 -102
-18 -182 -6 -349 50 -81 28 -156 50 -167 50 -22 0 -58 -42 -67 -77 -7 -26 -12
-27 -47 -14 -31 12 -41 40 -26 77 35 91 51 187 56 333 l6 155 42 -91 c80 -171
176 -283 293 -340 51 -25 67 -28 157 -28 88 0 107 3 150 26 69 35 107 92 113
167 7 98 -34 156 -153 214 -66 33 -272 101 -288 95 -7 -2 -50 -32 -95 -66 -46
-35 -85 -61 -87 -59 -1 2 -17 41 -35 88 l-32 84 27 24 27 23 -55 52 c-56 54
-93 107 -117 167 -7 19 -37 60 -67 90 l-53 56 49 48 c34 34 55 65 66 100 51
157 172 255 355 286 70 12 110 11 180 -5z m2088 -264 c40 -150 71 -276 68
-278 -2 -3 -25 4 -50 16 -37 16 -50 28 -67 68 -76 169 -101 214 -142 248 -58
50 -141 91 -215 105 -75 15 -83 10 -112 -66 -18 -49 -20 -78 -20 -262 l0 -206
47 -48 47 -48 -47 -48 -47 -48 0 -221 c0 -270 8 -300 106 -400 l62 -63 -360 0
-360 0 57 56 c35 34 68 80 86 118 l29 61 0 220 0 219 -52 54 -53 54 53 47 52
48 0 210 0 210 -31 61 -31 62 -41 -6 c-76 -11 -112 -23 -172 -59 -99 -58 -158
-136 -199 -262 -11 -33 -30 -63 -51 -82 -34 -29 -72 -47 -81 -38 -4 4 35 166
127 520 l10 37 657 -2 657 -3 73 -274z m1397 75 c96 -187 104 -206 94 -232
-16 -43 -49 -74 -79 -74 -24 0 -28 5 -39 53 -27 120 -109 236 -201 282 -96 48
-156 59 -315 59 -119 1 -158 -3 -187 -16 l-38 -17 0 -425 0 -425 93 70 c142
107 394 221 537 243 l45 7 -60 -29 c-213 -104 -408 -252 -557 -425 l-58 -68 0
-164 0 -165 -275 0 -276 0 54 53 c29 28 67 75 83 102 l29 50 3 234 3 234 -53
54 -53 54 53 47 53 47 -3 220 c-3 210 -4 222 -28 270 -13 27 -50 75 -82 107
l-58 58 604 0 605 0 106 -204z m866 148 c-37 -34 -71 -77 -88 -112 -28 -56
-28 -60 -31 -270 l-4 -214 54 -48 53 -48 -53 -55 -54 -54 4 -224 c3 -224 3
-224 32 -283 l29 -59 89 5 c77 5 99 11 166 43 120 60 191 146 232 281 17 55
50 93 96 109 21 7 40 12 42 10 2 -2 -28 -125 -67 -274 -39 -148 -71 -273 -71
-276 0 -3 -247 -5 -549 -5 l-549 0 64 64 c104 104 108 120 112 385 l4 224 -53
53 -53 54 53 54 53 53 -4 204 -3 205 -33 66 c-21 44 -51 84 -88 117 l-56 51
367 0 366 0 -60 -56z m1241 -2 c-104 -101 -106 -110 -110 -372 l-3 -225 50
-50 51 -49 -51 -52 -50 -51 3 -234 c3 -229 4 -235 28 -279 l25 -45 62 -3 c123
-6 245 48 334 147 37 41 56 76 80 142 33 94 65 133 117 148 27 8 32 7 32 -7 0
-9 -31 -134 -69 -277 l-68 -260 -547 -3 -546 -2 59 60 c102 103 105 117 109
384 l3 229 -53 54 -53 55 53 48 53 48 -3 218 c-3 215 -3 220 -30 270 -14 27
-52 76 -83 107 l-57 57 361 0 362 0 -59 -58z m1638 49 c0 -6 -5 -13 -10 -16
-6 -4 -20 -25 -32 -48 -16 -32 -21 -60 -22 -122 0 -74 4 -91 60 -235 56 -145
61 -155 84 -153 24 3 24 2 6 -12 -17 -13 -18 -19 -8 -53 9 -31 19 -40 49 -51
21 -8 52 -20 70 -27 l32 -14 -29 -66 c-17 -36 -30 -72 -30 -79 0 -31 116 -333
145 -380 45 -71 123 -153 194 -205 34 -25 61 -48 61 -52 0 -5 -184 -8 -410 -8
-392 0 -410 1 -410 19 0 36 43 83 95 103 59 23 75 40 75 85 0 26 -104 353
-165 521 -4 10 -17 5 -48 -19 -71 -55 -230 -220 -289 -299 -61 -83 -148 -228
-148 -247 0 -6 23 -24 51 -39 51 -28 79 -65 79 -104 0 -20 -5 -20 -230 -20
l-230 0 0 23 c0 33 31 83 68 111 42 31 82 86 109 151 12 28 121 311 243 630
122 319 226 588 231 598 9 15 29 17 209 17 118 0 200 -4 200 -9z m1300 -1
c265 -20 398 -88 469 -239 24 -52 26 -66 26 -186 -1 -132 0 -129 -50 -247 -5
-14 1 -18 32 -23 21 -3 67 -11 103 -17 l65 -12 -138 -22 c-124 -21 -258 -64
-257 -83 0 -3 70 -100 155 -216 86 -116 200 -271 254 -346 55 -74 127 -161
161 -192 67 -62 162 -130 198 -141 12 -4 22 -12 22 -17 0 -12 -687 -12 -695 0
-12 21 19 61 61 77 24 9 46 25 49 35 9 28 -21 75 -214 338 -100 135 -191 271
-205 303 l-26 59 -33 -22 c-64 -45 -173 -138 -210 -178 l-37 -41 0 -175 0
-175 -215 0 c-118 0 -215 3 -215 6 0 3 16 24 35 47 20 23 48 66 63 97 27 54
27 58 30 288 l3 232 -40 52 c-23 28 -41 54 -41 58 0 4 18 30 40 56 l41 49 -3
220 c-3 216 -3 221 -30 275 -15 31 -43 74 -63 97 -19 23 -35 44 -35 47 0 10
563 6 700 -4z m-10754 -982 c-3 -13 -37 -138 -75 -278 l-68 -255 -282 -3
c-278 -2 -281 -2 -281 18 0 57 54 90 149 90 112 0 221 46 305 128 51 49 83
104 111 192 20 64 56 107 100 119 45 14 48 13 41 -11z m5765 -230 c-33 -123
-65 -242 -71 -265 l-11 -43 -279 0 -280 0 0 24 c0 14 10 37 23 51 20 24 32 27
124 35 212 19 339 112 405 295 18 51 43 100 57 113 30 28 85 44 89 26 2 -7
-24 -113 -57 -236z"/>
<path d="M6351 1717 c-19 -7 -44 -25 -55 -40 -20 -26 -21 -43 -24 -249 l-3
-220 40 -48 c23 -27 41 -54 41 -60 0 -6 -18 -33 -40 -61 -23 -29 -40 -62 -40
-76 0 -25 1 -25 25 -9 86 57 246 136 274 136 6 0 16 10 22 23 7 12 24 36 40
54 38 44 52 123 47 254 -4 90 -9 115 -32 162 -57 118 -181 174 -295 134z"/>
<path d="M14790 1505 c-6 -16 -48 -131 -92 -255 -44 -124 -91 -253 -104 -287
-23 -62 -20 -80 7 -46 23 28 169 133 252 181 42 24 77 50 76 56 0 6 -29 94
-63 196 -61 177 -64 184 -76 155z"/>
<path d="M16324 1719 c-16 -5 -41 -20 -55 -35 -24 -25 -24 -27 -27 -252 l-3
-227 41 -49 c22 -26 40 -52 40 -56 0 -4 -18 -30 -41 -58 -28 -36 -39 -59 -37
-76 l3 -25 70 44 c39 25 105 59 148 77 145 60 197 162 184 365 -7 117 -29 176
-87 234 -37 37 -58 49 -99 58 -60 13 -94 13 -137 0z"/>
</g>
</svg>
